<svg width="32" height="32" viewBox="0 0 32 32" fill="none" xmlns="http://www.w3.org/2000/svg">
<g clip-path="url(#clip0_4_6)">
<path d="M16 18.6667C18.2091 18.6667 20 16.8758 20 14.6667C20 12.4575 18.2091 10.6667 16 10.6667C13.7909 10.6667 12 12.4575 12 14.6667C12 16.8758 13.7909 18.6667 16 18.6667Z" stroke="#756BFF" stroke-width="2" stroke-linecap="round" stroke-linejoin="round"/>
<path d="M23.5427 22.2093L17.8853 27.8667C17.3853 28.3662 16.7074 28.6468 16.0007 28.6468C15.2939 28.6468 14.616 28.3662 14.116 27.8667L8.45732 22.2093C6.96561 20.7176 5.94977 18.8169 5.53823 16.7478C5.1267 14.6787 5.33797 12.534 6.14532 10.585C6.95267 8.63593 8.31985 6.97006 10.074 5.79802C11.8281 4.62597 13.8903 4.0004 16 4.0004C18.1096 4.0004 20.1719 4.62597 21.926 5.79802C23.6801 6.97006 25.0473 8.63593 25.8546 10.585C26.662 12.534 26.8733 14.6787 26.4617 16.7478C26.0502 18.8169 25.0344 20.7176 23.5427 22.2093V22.2093Z" stroke="#756BFF" stroke-width="2" stroke-linecap="round" stroke-linejoin="round"/>
</g>
<defs>
<clipPath id="clip0_4_6">
<rect width="32" height="32" fill="white"/>
</clipPath>
</defs>
</svg>
